{"title":"Unreal Estate - S01E01 - Best Beach Houses","uid":15959999,"size":368531524,"categoryP":"video","categoryS":"tv_shows","magnet":"?xt=urn:btih:7f27804ee5d7227db64fd03d8a87c54cf3568040&amp;dn=Unreal+Estate+-+S01E01+-+Best+Beach+Houses&amp;tr=udp%3A%2F%2Ftracker.leechers-paradise.org%3A6969&amp;tr=udp%3A%2F%2Fzer0day.ch%3A1337&amp;tr=udp%3A%2F%2Fopen.demonii.com%3A1337&amp;tr=udp%3A%2F%2Ftracker.coppersurfer.tk%3A6969&amp;tr=udp%3A%2F%2Fexodus.desync.com%3A6969","seeders":27,"leechers":12,"uploader":"Bullrout","files":1,"time":1475654478,"description":"Unreal Estate - S01E01 - Best Beach Houses\r\n\r\nKate and Cam are on a mission to find the best beach houses in Australia. Cam finds a house that love built with million-dollar views in Noosa, while Kate discovers a palatial paradise on the Great Barrier Reef.\r\n\r\nComplete name : Unreal Estate - S01E01 - Best Beach Houses.mp4\r\nFormat : MPEG-4\r\nFormat profile : Base Media / Version 2\r\nCodec ID : mp42 (mp42/isom/avc1)\r\nFile size : 351 MiB\r\nDuration : 44 min 25 s\r\nOverall bit rate mode : Variable\r\nOverall bit rate : 1 106 kb/s\r\n\r\nVideo\r\nID : 2\r\nFormat : AVC\r\nFormat/Info : Advanced Video Codec\r\nFormat profile :   \r\nFormat settings, CABAC : Yes\r\nFormat settings, ReFrames : 3 frames\r\nCodec ID : avc1\r\nCodec ID/Info : Advanced Video Coding\r\nDuration : 44 min 25 s\r\nBit rate mode : Variable\r\nBit rate : 974 kb/s\r\nMaximum bit rate : 1 000 kb/s\r\nWidth : 720 pixels\r\nHeight : 404 pixels\r\nDisplay aspect ratio : 16:9\r\nOriginal display aspect ratio : 16:9\r\nFrame rate mode : Constant\r\nFrame rate : 25.000 FPS\r\nStandard : PAL\r\nColor space : YUV\r\nChroma subsampling : 4:2:0\r\nBit depth : 8 bits\r\nScan type : Progressive\r\nBits/(Pixel*Frame) : 0.134\r\nStream size : 310 MiB (88%)\r\nWriting library : x264 core 112\r\nColor range : Limited\r\nColor primaries : BT.601 PAL\r\nTransfer characteristics : BT.470 System B, BT.470 System G\r\nMatrix coefficients : BT.601\r\n\r\nAudio\r\nID : 1\r\nFormat : AAC\r\nFormat/Info : Advanced Audio Codec\r\nFormat profile : LC\r\nCodec ID : 40\r\nDuration : 44 min 25 s\r\nBit rate mode : Variable\r\nBit rate : 128 kb/s\r\nMaximum bit rate : 576 kb/s\r\nChannel(s) : 2 channels\r\nChannel positions : Front: L R\r\nSampling rate : 48.0 kHz\r\nFrame rate : 46.875 FPS (1024 spf)\r\nCompression mode : Lossy\r\nStream size : 40.7 MiB (12%)","torrent":{"xt":"urn:btih:7f27804ee5d7227db64fd03d8a87c54cf3568040","amp;dn":"Unreal+Estate+-+S01E01+-+Best+Beach+Houses","amp;tr":["udp%3A%2F%2Ftracker.leechers-paradise.org%3A6969","udp%3A%2F%2Fzer0day.ch%3A1337","udp%3A%2F%2Fopen.demonii.com%3A1337","udp%3A%2F%2Ftracker.coppersurfer.tk%3A6969","udp%3A%2F%2Fexodus.desync.com%3A6969"],"infoHash":"7f27804ee5d7227db64fd03d8a87c54cf3568040","infoHashBuffer":{"type":"Buffer","data":[127,39,128,78,229,215,34,125,182,79,208,61,138,135,197,76,243,86,128,64]},"announce":[],"urlList":[]}}